<svg width="400" height="240" viewBox="0 0 400 240" fill="none" xmlns="http://www.w3.org/2000/svg">
<path d="M289.14 63.356L285.49 66.1244L288.05 69.4804L288.89 68.8431L298.38 81.2514L300.4 79.7178L290.91 67.3095L291.7 66.702L289.14 63.356Z" fill="#24285B"/>
<path d="M224 126.951C224 126.951 255.38 169.653 281.74 163.638C308.1 157.623 302.2 89.9452 302.2 89.9452C302.2 89.9452 310.77 77.995 302.2 72.3087C293.63 66.6224 291.75 87.5054 291.75 87.5054C291.75 87.5054 292.37 122.211 277.84 127.27C263.31 132.329 265.39 72.2888 212.58 67.3593C159.77 62.4298 224 126.951 224 126.951Z" fill="#F4A28C"/>
<path opacity="0.06" d="M224 126.951C224 126.951 255.38 169.653 281.74 163.638C308.1 157.623 302.2 89.9452 302.2 89.9452C302.2 89.9452 310.77 77.995 302.2 72.3087C293.63 66.6224 291.75 87.5054 291.75 87.5054C291.75 87.5054 292.37 122.211 277.84 127.27C263.31 132.329 265.39 72.2888 212.58 67.3593C159.77 62.4298 224 126.951 224 126.951Z" fill="black"/>
<path d="M193.21 34.1378C193.21 34.1378 195 45.4407 186 50.1809C177 54.9212 168.38 50.9378 162.7 60.5577C157.02 70.1776 173.52 87.7345 192.43 64.9096C211.34 42.0847 201.3 31.8672 193.21 34.1378Z" fill="#24285B"/>
<path d="M196.3 33.6598L192.14 67.0805L208.89 69.5502L204.24 43.8175L196.3 33.6598Z" fill="#F4A28C"/>
<path opacity="0.31" d="M205.11 48.3585C202.106 47.918 199.167 47.112 196.36 45.9585C196.914 48.6577 198.165 51.1663 199.991 53.236C201.817 55.3057 204.154 56.8649 206.77 57.7593L205.11 48.3585Z" fill="#CE8172"/>
<path d="M207.9 28.5012C207.9 28.5012 212.47 38.2008 213.24 45.4307C213.315 46.1354 213.248 46.8479 213.045 47.5271C212.842 48.2062 212.505 48.8385 212.056 49.3875C211.606 49.9365 211.051 50.3914 210.423 50.7258C209.796 51.0602 209.108 51.2677 208.4 51.3361C204.71 51.6647 199.63 51.0473 196.55 46.1576L190.29 38.4896C190.29 38.4896 186.54 33.5103 190.72 27.3858C194.9 21.2614 205.41 22.4663 207.9 28.5012Z" fill="#F4A28C"/>
<path d="M210.47 34.7552L214.71 37.5934C214.949 37.756 215.144 37.9759 215.276 38.2329C215.408 38.4898 215.473 38.7757 215.465 39.0641C215.457 39.3526 215.376 39.6345 215.23 39.8838C215.084 40.1332 214.878 40.3421 214.63 40.4914L211 42.6324L210.47 34.7552Z" fill="#F4A28C"/>
<path d="M205.31 23.9602C205.31 23.9602 213.62 32.2954 200.36 41.039L193.46 49.5336C193.46 49.5336 185.09 43.5585 182.96 35.3129C180.83 27.0672 194.16 11.1037 205.31 23.9602Z" fill="#24285B"/>
<path d="M200.36 41.039C200.36 41.039 198.85 37.195 196.05 38.5593C193.25 39.9236 195.38 45.5303 199.54 44.5344L200.36 41.039Z" fill="#F4A28C"/>
<path d="M188.86 65.4872C188.86 65.4872 143.29 62.1013 138.86 97.5337C134.43 132.966 163.86 177.849 163.86 177.849L234.07 173.447C234.07 173.447 269.72 149.716 258.28 115.399C246.84 81.0822 233.59 77.2183 208.44 65.3976L188.86 65.4872Z" fill="#FF930D"/>
<path opacity="0.05" d="M176.65 81.1619C176.65 81.1619 185.45 87.844 184.33 114.662C183.21 141.481 180.88 150.732 192.81 158.958C204.74 167.183 222 149.935 222 149.935L226.11 142.217H243.11L227.83 173.836L163.83 177.819L154.45 158.898L148.29 149.039C148.29 149.039 162.85 110.559 163.41 110.38C163.97 110.201 176.65 81.1619 176.65 81.1619Z" fill="black"/>
<path d="M200.48 134.171C200.48 134.171 201.88 120.797 206.64 119.542C211.4 118.287 211.54 124.192 211.54 124.192C211.54 124.192 210.7 114.802 214.34 114.662C217.98 114.523 219.94 119.542 219.94 119.542C219.94 119.542 221.06 113.427 226.24 115.648C231.42 117.869 221.62 127.469 221.62 127.469C221.62 127.469 228.81 124.77 227.75 130.675C226.69 136.581 205.29 138.483 205.29 138.483L200.48 134.171Z" fill="#24285B"/>
<path d="M197.22 138.503C197.22 138.503 206.15 138.324 209.52 133.305C212.89 128.286 212.34 120.916 216.63 121.623C220.92 122.33 216.26 126.234 219.24 131.074C222.22 135.914 224.84 126.792 228.76 127.349C232.68 127.907 239.4 134.231 227.08 139.997C214.76 145.763 197.22 138.503 197.22 138.503Z" fill="#FFD200"/>
<path opacity="0.27" d="M180.65 144.448C180.65 144.448 171.59 136.631 175.65 129.759C179.71 122.888 182.93 136.452 186.48 131.243C190.03 126.035 191.66 122.43 195.7 127.768C199.74 133.105 194.51 139.977 205.24 141.839L181.44 144.448H180.65Z" fill="white"/>
<path d="M196.39 132.1C195.515 124.238 191.823 116.954 185.99 111.585C185.99 111.585 190.06 122.739 186.57 133.723L196.39 132.1Z" fill="#FF930D"/>
<path d="M196.39 132.1C195.515 124.238 191.823 116.954 185.99 111.585C185.99 111.585 190.06 122.739 186.57 133.723L196.39 132.1Z" fill="white"/>
<path d="M185.86 142.516C185.86 142.516 178.75 129.57 183.52 126.921C188.29 124.272 188.62 135.824 192.74 129.69C196.86 123.555 202.28 117.789 205.27 123.714C208.26 129.64 203.59 135.346 210.27 131.861C216.95 128.375 229.13 126.881 226.89 135.844C224.65 144.807 200.05 152.186 185.86 142.516Z" fill="#FF930D"/>
<path opacity="0.05" d="M185.86 142.516C185.86 142.516 178.75 129.57 183.52 126.921C188.29 124.272 188.62 135.824 192.74 129.69C196.86 123.555 202.28 117.789 205.27 123.714C208.26 129.64 203.59 135.346 210.27 131.861C216.95 128.375 229.13 126.881 226.89 135.844C224.65 144.807 200.05 152.186 185.86 142.516Z" fill="black"/>
<path d="M172.01 138.503L183.14 161.368L219.59 159.884L233.24 138.503H172.01Z" fill="#24285B"/>
<path d="M165.66 68.1759C165.66 68.1759 113.29 84.6473 109.26 143.522C108.909 148.385 109.606 153.267 111.303 157.841C113.001 162.414 115.66 166.574 119.102 170.041C122.545 173.508 126.692 176.203 131.265 177.944C135.839 179.686 140.733 180.434 145.62 180.139C163.72 179.014 186.62 175.708 207.19 167.124C207.19 167.124 221.11 166.885 223.65 159.416C226.19 151.947 215.82 150.991 207.19 155.432C207.19 155.432 182.67 161.328 163.35 161.109C161.68 161.088 160.045 160.623 158.616 159.763C157.186 158.903 156.013 157.678 155.218 156.215C154.423 154.752 154.034 153.104 154.093 151.442C154.151 149.779 154.654 148.162 155.55 146.758C169.09 125.527 192.28 82.1377 165.66 68.1759Z" fill="#F4A28C"/>
<path d="M281.39 69.5103L295.39 61.7526C295.39 61.7526 292.15 56.4547 286.28 57.2912C280.41 58.1277 278.15 63.346 281.39 69.5103Z" fill="#FFD200"/>
<path d="M163.85 177.849L234.06 173.447L243.14 228.578H154.96L163.85 177.849Z" fill="#24285B"/>
</svg>
