<svg width="471" height="353" viewBox="0 0 471 353" fill="none" xmlns="http://www.w3.org/2000/svg">
<path d="M347.209 49.0906H179.698V256.078H347.209V49.0906Z" fill="#E6E6E6"/>
<path d="M302.417 200.786H223.996V230.227H302.417V200.786Z" fill="#FFD200"/>
<path opacity="0.09" d="M186.045 117.867C186.045 117.867 202.907 120.397 199.904 131.916C197.878 139.08 193.919 145.549 188.459 150.613V176.5L213.127 204.411L221.264 187.937L244.119 198.527C244.119 198.527 226.68 240.181 230.884 256.102H199.904L171.727 193.315L174.918 139.188L186.045 117.867Z" fill="black"/>
<path d="M225.362 197.421C225.362 197.421 238.785 199.363 230.766 213.389C222.748 227.414 216.742 271.645 192.886 260.938L225.362 197.421Z" fill="#F4A28C"/>
<path opacity="0.09" d="M225.362 197.421C225.362 197.421 238.785 199.363 230.766 213.389C222.748 227.414 216.742 271.645 192.886 260.938L225.362 197.421Z" fill="black"/>
<path d="M173.528 125.621L165.674 153.32L181.264 156.556L180.723 135.093L173.528 125.621Z" fill="#F4A28C"/>
<path opacity="0.31" d="M181.041 139.788C179.149 139.056 177.512 137.788 176.331 136.14C176.331 136.14 175.93 141.4 181.041 147.248V139.788Z" fill="#CE8172"/>
<path d="M189.672 126.421C189.672 126.421 188.895 135.175 186.422 140.659C186.181 141.19 185.836 141.668 185.409 142.066C184.982 142.464 184.481 142.774 183.934 142.977C183.386 143.181 182.804 143.274 182.221 143.252C181.638 143.229 181.064 143.092 180.534 142.847C177.791 141.565 174.458 139.035 174.305 134.293L173.092 126.268C173.013 124.635 173.443 123.018 174.322 121.64C175.202 120.261 176.488 119.19 178.003 118.573C183.49 115.937 190.425 121.114 189.672 126.421Z" fill="#F4A28C"/>
<path d="M173.093 154.861L181.335 156.555C181.335 156.555 215.247 176.559 214.046 202.445C212.845 228.332 196.301 258.631 196.301 258.631H138.604C138.604 258.631 98.7923 165.298 173.093 154.861Z" fill="#FF930D"/>
<path d="M231.799 187.249L215.795 180.846L204.206 209.772L220.209 216.175L231.799 187.249Z" fill="#FFD200"/>
<path opacity="0.09" d="M164.167 171.899C164.167 171.899 182.465 176.735 182.76 200.469C183.054 224.202 180.958 239.828 199.904 238.322L152.239 258.584H138.509C138.509 258.584 130.02 239.216 128.736 217.589C127.453 195.962 150.072 168.569 164.167 171.899Z" fill="black"/>
<path d="M138.509 258.584L136.166 296.002L211.02 293.896L196.23 258.584H138.509Z" fill="#24285B"/>
<path d="M179.157 132.198C179.157 132.198 179.686 128.857 177.131 128.668C174.576 128.48 173.799 133.305 177.131 134.364L179.157 132.198Z" fill="#F4A28C"/>
<path d="M149.731 167.84C149.731 167.84 164.414 164.91 169.619 180.712C174.823 196.515 169.713 240.981 180.746 244.853C191.779 248.724 215.282 209.859 215.282 209.859C215.282 209.859 215.059 197.209 223.643 193.597C232.227 189.985 226.81 208.952 222.288 213.471C217.767 217.989 205.792 269.457 170.737 268.362C135.683 267.268 121.282 180.948 149.731 167.84Z" fill="#F4A28C"/>
<path d="M188.895 131.916L190.755 135.67C190.858 135.883 190.905 136.119 190.893 136.355C190.88 136.592 190.809 136.821 190.685 137.023C190.56 137.224 190.387 137.391 190.181 137.508C189.976 137.626 189.744 137.689 189.507 137.694H186.08L188.895 131.916Z" fill="#F4A28C"/>
<path d="M189.731 115.066C189.731 115.066 198.291 125.127 187.211 127.233C176.13 129.339 173.846 131.328 174.918 142.53C175.989 153.731 180.358 164.051 165.674 171.087C150.991 178.124 163.602 189.914 160.964 203.669C158.327 217.424 145.327 226.944 128.795 217.566C112.263 208.188 102.03 184.137 119.775 169.722C137.52 155.308 159.81 151.849 159.81 128.633C159.81 105.418 178.274 104.253 189.731 115.066Z" fill="#24285B"/>
<path d="M262.382 175.1C283.414 175.1 300.463 158.063 300.463 137.046C300.463 116.03 283.414 98.9929 262.382 98.9929C241.351 98.9929 224.302 116.03 224.302 137.046C224.302 158.063 241.351 175.1 262.382 175.1Z" fill="#FF930D"/>
<path d="M200.787 73.5181C204.136 73.5181 206.851 70.805 206.851 67.4583C206.851 64.1115 204.136 61.3984 200.787 61.3984C197.438 61.3984 194.723 64.1115 194.723 67.4583C194.723 70.805 197.438 73.5181 200.787 73.5181Z" fill="#FFD200"/>
<path d="M217.885 73.5181C221.234 73.5181 223.949 70.805 223.949 67.4583C223.949 64.1115 221.234 61.3984 217.885 61.3984C214.535 61.3984 211.82 64.1115 211.82 67.4583C211.82 70.805 214.535 73.5181 217.885 73.5181Z" fill="#FF930D"/>
<path d="M234.24 73.5181C237.589 73.5181 240.304 70.805 240.304 67.4583C240.304 64.1115 237.589 61.3984 234.24 61.3984C230.891 61.3984 228.176 64.1115 228.176 67.4583C228.176 70.805 230.891 73.5181 234.24 73.5181Z" fill="#24285B"/>
<path d="M246.203 137.046L257.92 152.59L276.866 122.703" stroke="white" stroke-width="7" stroke-linecap="round" stroke-linejoin="round"/>
</svg>
